<svg xmlns="http://www.w3.org/2000/svg" style="display:none">
  <symbol id="disruption-marker" viewBox="0 0 64 64">
    <g stroke-linecap="round" stroke-linejoin="round">
    <circle cx="32" cy="32" r="18" stroke="#E7EEE7" stroke-width="5"/>
    <path d="M18.3 20.2A18 18 0 0 1 44.6 18.1" stroke="#1D4C39" stroke-width="3.2"/>
    <path d="M47.9 22.6A18 18 0 0 1 49.3 36.5" stroke="#1D4C39" stroke-width="3.2"/>
    <path d="M45.2 43.1A18 18 0 0 1 28.4 49.6" stroke="#1D4C39" stroke-width="3.2"/>
    <circle cx="32" cy="32" r="5.5" fill="#1D4C39"/>
    <path d="M54 10L44.2 19.8" stroke="#A76658" stroke-width="3.4"/>
    <path d="M47.1 10.2L54 10L53.8 16.9" stroke="#A76658" stroke-width="3.4"/>
    <circle cx="45.2" cy="18.8" r="3.1" fill="#B89A64"/>
    <path d="M39.1 24.9L43.2 20.8" stroke="#C49355" stroke-width="2.1"/>
  
    </g>
  </symbol>
  <symbol id="objective-at-risk" viewBox="0 0 64 64">
    <g stroke-linecap="round" stroke-linejoin="round">
    <circle cx="32" cy="32" r="20" stroke="#E7EEE7" stroke-width="4.6"/>
    <path d="M17.8 17.8A20 20 0 0 1 44.4 14.1" stroke="#1D4C39" stroke-width="3"/>
    <path d="M49.6 20.5A20 20 0 0 1 50.2 41.8" stroke="#1D4C39" stroke-width="3"/>
    <path d="M44.7 47.6A20 20 0 0 1 21.6 48.9" stroke="#1D4C39" stroke-width="3"/>
    <circle cx="32" cy="32" r="7.2" fill="#1D4C39"/>
    <path d="M48.2 44.1L54.8 55.2H41.6L48.2 44.1Z" fill="#FFFDF9" stroke="#A76658" stroke-width="2.5"/>
    <path d="M48.2 48.2V51.3" stroke="#A76658" stroke-width="2.4"/>
    <circle cx="48.2" cy="53.5" r="1.2" fill="#A76658" stroke="none"/>
    <circle cx="50.2" cy="16.4" r="2.8" fill="#B89A64" stroke="none"/>
  
    </g>
  </symbol>
  <symbol id="verification-state" viewBox="0 0 64 64">
    <g stroke-linecap="round" stroke-linejoin="round">
    <circle cx="32" cy="32" r="21" stroke="#E7EEE7" stroke-width="4.2"/>
    <path d="M16.8 18.2A21 21 0 0 1 45.7 16.1" stroke="#1D4C39" stroke-width="3"/>
    <path d="M49.5 21.3A21 21 0 0 1 51 36.9" stroke="#1D4C39" stroke-width="3"/>
    <path d="M47.3 44.8A21 21 0 0 1 24.8 51.7" stroke="#1D4C39" stroke-width="3"/>
    <circle cx="32" cy="32" r="9.2" fill="#1D4C39"/>
    <path d="M27.8 32.2L30.8 35.2L36.8 28.9" stroke="#FFFDF9" stroke-width="2.8"/>
    <circle cx="48.8" cy="18.7" r="3.1" fill="#B89A64" stroke="none"/>
    <circle cx="18.3" cy="45.9" r="3" fill="#91A995" stroke="none"/>
    <circle cx="51.4" cy="37.6" r="2.4" fill="#91A995" stroke="none"/>
    <path d="M46.2 20.8L42.2 24.4" stroke="#91A995" stroke-width="1.8"/>
    <path d="M20.8 43.7L24.3 40.8" stroke="#91A995" stroke-width="1.8"/>
  
    </g>
  </symbol>
  <symbol id="recovery-replan" viewBox="0 0 64 64">
    <g stroke-linecap="round" stroke-linejoin="round">
    <circle cx="22" cy="32" r="6.5" fill="#1D4C39"/>
    <circle cx="22" cy="32" r="11.5" stroke="#E7EEE7" stroke-width="3.2"/>
    <path d="M33.5 32H39.5" stroke="#1D4C39" stroke-width="3"/>
    <path d="M40.2 32L43.7 28.5" stroke="#A76658" stroke-width="2.8"/>
    <path d="M40.2 32L43.7 35.5" stroke="#A76658" stroke-width="2.8"/>
    <path d="M43.7 28.5L47.2 32L43.7 35.5" stroke="#A76658" stroke-width="2.8"/>
    <path d="M47.5 32C52.5 32 55.2 28.2 55.2 23.7C55.2 19.7 52.7 16.8 49 16.8C43.6 16.8 40.8 21.1 40.8 25.4" stroke="#C49355" stroke-width="2.6" stroke-dasharray="2.4 4.2"/>
    <path d="M40.8 25.4C40.8 19.5 36.1 14.8 30.2 14.8H27.7" stroke="#1D4C39" stroke-width="3"/>
    <path d="M31.4 10.9L27.3 14.8L31.4 18.7" stroke="#1D4C39" stroke-width="3"/>
    <circle cx="49" cy="16.8" r="2.8" fill="#B89A64" stroke="none"/>
  
    </g>
  </symbol>
  <symbol id="failure-fracture" viewBox="0 0 64 64">
    <g stroke-linecap="round" stroke-linejoin="round">
    <circle cx="14" cy="32" r="5.8" fill="#1D4C39"/>
    <path d="M19.8 32H31" stroke="#1D4C39" stroke-width="3.2"/>
    <path d="M31 32L34.3 27.6L37 35.8L40 30.2L43.1 32" stroke="#A76658" stroke-width="3"/>
    <path d="M43.1 32H54" stroke="#91A995" stroke-width="3.2" stroke-dasharray="2 4"/>
    <circle cx="54" cy="32" r="4.5" fill="#E7EEE7" stroke="#91A995" stroke-width="2.2"/>
    <circle cx="35" cy="22" r="2.8" fill="#B89A64" stroke="none"/>
    <path d="M35 24.8V27" stroke="#C49355" stroke-width="1.8"/>
  
    </g>
  </symbol>
  <symbol id="recovery-selected" viewBox="0 0 64 64">
    <g stroke-linecap="round" stroke-linejoin="round">
    <circle cx="32" cy="13" r="5.5" fill="#1D4C39"/>
    <path d="M29.7 18C24.5 22.8 18 25.1 13.8 30.2C11 33.6 10.4 38.2 10.4 43.2" stroke="#91A995" stroke-width="2.4"/>
    <path d="M32 18.5V44.5" stroke="#1D4C39" stroke-width="3.4"/>
    <path d="M34.3 18C39.5 22.8 46 25.1 50.2 30.2C53 33.6 53.6 38.2 53.6 43.2" stroke="#91A995" stroke-width="2.4"/>
    <circle cx="10.4" cy="48.7" r="4.4" fill="#E7EEE7" stroke="#91A995" stroke-width="2"/>
    <circle cx="32" cy="49" r="5.2" fill="#1D4C39"/>
    <circle cx="53.6" cy="48.7" r="4.4" fill="#E7EEE7" stroke="#91A995" stroke-width="2"/>
    <path d="M29.3 49L31.2 50.9L34.9 47.1" stroke="#FFFDF9" stroke-width="2.2"/>
    <circle cx="32" cy="31.5" r="2.6" fill="#B89A64" stroke="none"/>
  
    </g>
  </symbol>
  <symbol id="policy-rejected" viewBox="0 0 64 64">
    <g stroke-linecap="round" stroke-linejoin="round">
    <circle cx="12.5" cy="32" r="5.3" fill="#91A995"/>
    <path d="M17.8 32H27.3" stroke="#91A995" stroke-width="2.8"/>
    <path d="M29.5 19.5L40.5 15.5L51.5 19.5V30.3C51.5 38.8 46.7 45.4 40.5 49C34.3 45.4 29.5 38.8 29.5 30.3V19.5Z" fill="#FFFDF9" stroke="#1D4C39" stroke-width="2.5"/>
    <path d="M36.4 26.3L44.6 34.5" stroke="#A76658" stroke-width="2.8"/>
    <path d="M44.6 26.3L36.4 34.5" stroke="#A76658" stroke-width="2.8"/>
    <path d="M27.3 28.5L30.8 32L27.3 35.5" stroke="#C49355" stroke-width="2.4"/>
    <circle cx="40.5" cy="18.1" r="2.4" fill="#B89A64" stroke="none"/>
  
    </g>
  </symbol>
  <symbol id="readback-verified" viewBox="0 0 64 64">
    <g stroke-linecap="round" stroke-linejoin="round">
    <rect x="25" y="19" width="22" height="26" rx="5.5" fill="#FFFDF9" stroke="#1D4C39" stroke-width="2.5"/>
    <path d="M30.5 26.2H41.5" stroke="#91A995" stroke-width="2.2"/>
    <path d="M30.5 31.5H38.8" stroke="#91A995" stroke-width="2.2"/>
    <path d="M12 25.5C15.8 20.4 19.7 18.5 24.1 18.5" stroke="#1D4C39" stroke-width="2.8"/>
    <path d="M20.6 15.4L24.5 18.5L21.2 22.4" stroke="#1D4C39" stroke-width="2.6"/>
    <path d="M46.8 47C41.5 52.2 34.7 54 28.6 52.8C22.3 51.5 17.4 47.9 14.3 42.7" stroke="#91A995" stroke-width="2.8"/>
    <path d="M17.3 43L14 42.4L13.2 45.9" stroke="#91A995" stroke-width="2.4"/>
    <circle cx="46.5" cy="44.5" r="8.5" fill="#1D4C39"/>
    <path d="M42.4 44.6L45.1 47.3L50.6 41.8" stroke="#FFFDF9" stroke-width="2.7"/>
    <circle cx="20.4" cy="18.9" r="2.8" fill="#B89A64" stroke="none"/>
  
    </g>
  </symbol>
</svg>
