<svg xmlns="http://www.w3.org/2000/svg" width="24" height="26" viewBox="0 0 28 30">
  <defs>
    <linearGradient id="reflow-grabbing-fill" x1="5" y1="7" x2="22" y2="26" gradientUnits="userSpaceOnUse">
      <stop stop-color="#fffdf8"/>
      <stop offset="1" stop-color="#e7eee7"/>
    </linearGradient>
  </defs>
  <path d="M7.4 12.3V9.5a2 2 0 0 1 4 0v1.7-3.5a2 2 0 0 1 4 0v3.5-2.4a2 2 0 0 1 4 0v3.1-1.1a2 2 0 0 1 4 0v6.1c0 6-3.5 9.5-8.8 9.5h-1.2c-3.4 0-5.8-1.4-7.7-4l-2.8-3.9a2.2 2.2 0 0 1 3.4-2.7l1.1.9" fill="url(#reflow-grabbing-fill)" stroke="#fffdf8" stroke-width="3.6" stroke-linecap="round" stroke-linejoin="round" paint-order="stroke fill"/>
  <path d="M7.4 12.3V9.5a2 2 0 0 1 4 0v1.7-3.5a2 2 0 0 1 4 0v3.5-2.4a2 2 0 0 1 4 0v3.1-1.1a2 2 0 0 1 4 0v6.1c0 6-3.5 9.5-8.8 9.5h-1.2c-3.4 0-5.8-1.4-7.7-4l-2.8-3.9a2.2 2.2 0 0 1 3.4-2.7l1.1.9" fill="none" stroke="#173d2e" stroke-width="1.35" stroke-linecap="round" stroke-linejoin="round"/>
  <path d="M11.5 20.9h7" stroke="#b89a64" stroke-width="1.2" stroke-linecap="round"/>
</svg>
